PathFileType	4	(X/Y/Z)	9_coords_data.trc
DataRate	CameraRate	NumFrames	NumMarkers	Units	OrigDataRate	OrigDataStartFrame	OrigNumFrames
30.0	30.0	6	21	m	30.0	1	48
Frame#	Time	THUMB_TIP	THUMB_IP	THUMB_MCP	THUMB_CMC	INDEX_TIP	INDEX_DIP	INDEX_PIP	INDEX_MCP	MIDDLE_TIP	MIDDLE_DIP	MIDDLE_PIP	MIDDLE_MCP	RING_TIP	RING_DIP	RING_PIP	RING_MCP	PINKY_TIP	PINKY_DIP	PINKY_PIP	PINKY_MCP	WRIST
X1	Y1	Z1	X2	Y2	Z2	X3	Y3	Z3	X4	Y4	Z4	X5	Y5	Z5	X6	Y6	Z6	X7	Y7	Z7	X8	Y8	Z8	X9	Y9	Z9	X10	Y10	Z10	X11	Y11	Z11	X12	Y12	Z12	X13	Y13	Z13	X14	Y14	Z14	X15	Y15	Z15	X16	Y16	Z16	X17	Y17	Z17	X18	Y18	Z18	X19	Y19	Z19	X20	Y20	Z20	X21	Y21	Z21
0	-2.749317978547796e-18	0.4692840638838377	-0.028816390519241675	-0.16934525306795012	0.47854263575276673	-0.025801299680270007	-0.14853208237772064	0.48062240542327545	-0.028419286520049658	-0.11758631202013603	0.4815265410347122	-0.024974106996065948	-0.07312055804200512	0.5238559875726772	-0.01692538081242223	-0.09730494402862089	0.534585101398463	-0.006451255759449492	-0.10746264164609376	0.5396149635231823	0.012973534440613332	-0.12260819695746683	0.49710539713209045	0.013238377693018832	-0.12005815435134859	0.5092901210265575	-0.016885551657451425	-0.0816789975191966	0.5259016035191291	-0.010436833614869578	-0.08491515032867047	0.5427527450416668	0.009386299414879784	-0.09804877040358728	0.5016885406261642	0.025993225963776623	-0.10388735133745797	0.505765323744295	-0.007853124056400929	-0.07364833582474295	0.52267749490208	-0.0016205987829683854	-0.07401452627492999	0.5387820429165395	0.016522601216925725	-0.07964016455105616	0.5041658196930535	0.036704931888114856	-0.0850356675322963	0.5107758074912048	-0.005757461826203625	-0.06359407247775606	0.5272891857906542	-0.001712005896869373	-0.06160846842279222	0.5355663430782966	0.01741433997945374	-0.0590621809969718	0.5050408567429235	0.03647555534963509	-0.06145972215418327	0.4622830810018609	-0.023011742144276925	-0.051989820119430985
1	0.03333333333333339	0.46895791027138367	-0.029087158929451684	-0.16929190800997707	0.4782252081195684	-0.02611352676930756	-0.1484766563331612	0.47997776704923	-0.028612748729456072	-0.11750082015732932	0.48157884291909403	-0.02513382232079553	-0.07305733214049992	0.5228424526833166	-0.01605849552235883	-0.09796633834472257	0.5342527893524365	-0.005807100279040522	-0.10759510320126608	0.5395341096784536	0.013536546235318192	-0.12275890312547821	0.4970343845459774	0.013331899040262885	-0.12004457499691268	0.5090905714924335	-0.016809047861143456	-0.08205742242838598	0.5257704760047108	-0.010339668740957042	-0.08487307852610249	0.5424796402321748	0.009672173440586795	-0.09790149183397034	0.5014966858464251	0.026563602465358382	-0.10348942493277202	0.5062610464526749	-0.007004018397936962	-0.07340674866807062	0.5233064273163591	-0.0011400546942698098	-0.07366927655995659	0.5392516277830882	0.017130628582124885	-0.07933608286417215	0.5043794115487366	0.03700037566618719	-0.08421896313303234	0.510401375872503	-0.005468261688155951	-0.0629127171794509	0.5267719720781783	-0.0012248490431494563	-0.06026752739515706	0.535544936144165	0.01776578060026257	-0.0584778050022533	0.504917525896845	0.03670031748128055	-0.06055831110503995	0.4622830810018609	-0.023011742144276925	-0.051989820119430985
2	0.06666666666666676	0.46864409715112887	-0.02928807900935604	-0.16923639578747496	0.47793199051785734	-0.0263475579527217	-0.14842562038808693	0.47945301257027073	-0.028761762001645153	-0.11743081258538834	0.48161331900921395	-0.025252906393940622	-0.0730133497085631	0.5220636313592704	-0.015384529251279755	-0.09847777663682766	0.5339817220005892	-0.005329891826308608	-0.10768990894795294	0.5394653476285882	0.013949721062610165	-0.12286344544493977	0.49697613156877357	0.013408613680848891	-0.12003328371390753	0.5089309218488736	-0.016747470541405463	-0.08236068126628848	0.5256599106246564	-0.010265416414947715	-0.08483533454329639	0.542262182439021	0.009891130739317022	-0.09777703950902095	0.5013462894526923	0.02700519550565539	-0.1031757809646634	0.5066316666332265	-0.0063416060280104825	-0.07321980237705061	0.5237734629062983	-0.0007626434511670555	-0.07340418539872884	0.5396001072268515	0.01760423444395287	-0.07909234019061495	0.5045376258649017	0.03723266792518276	-0.0835720537769804	0.5101349639501345	-0.005208273087902726	-0.06236786541984063	0.5263786103270154	-0.0008249398503932248	-0.05921662088604329	0.5355152517626918	0.0180396073152439	-0.05800721503549844	0.5048108923579067	0.03687485622686393	-0.059840016983093824	0.4622830810018609	-0.023011742144276925	-0.051989820119430985
3	0.10000000000000014	0.4683515069956367	-0.02942610942451729	-0.16918580533805827	0.4776691512138449	-0.026511293235921607	-0.14838471515485896	0.47904286754121084	-0.02887060976878575	-0.11737880396119016	0.48163284547636015	-0.025335398996589653	-0.0729864138577998	0.5214851186555974	-0.014888258181254499	-0.0988510440079583	0.533770836533209	-0.004997458894824169	-0.10775234872733985	0.539410650762776	0.014234719396066464	-0.12292883206978034	0.49692990948683224	0.013469733203484102	-0.1200240927060009	0.5088080394357606	-0.01670186536737961	-0.08258834586323105	0.5255705648875009	-0.010213079489204357	-0.08480496452844033	0.5420983909252965	0.010048236259915244	-0.09767817704819781	0.5012352469276229	0.027329585131271372	-0.10294186062644162	0.5068901371227412	-0.005853209567577178	-0.07308218071389327	0.5240987163146482	-0.0004821632321304614	-0.07321126773240527	0.5398424499550558	0.017954346925740383	-0.07890423912339528	0.504646600238609	0.037409300887019215	-0.08308488059353114	0.5099551231309102	-0.004993767979052488	-0.061959556004910654	0.5260974861334282	-0.0005177112596188582	-0.058439750195018014	0.5354830918478849	0.018246435121670568	-0.05764650688159079	0.504722315051386	0.03700651823570866	-0.05929494354411757	0.46228308100186094	-0.023011742144276925	-0.051989820119430985
4	0.13333333333333353	0.46808704419085545	-0.029508860573238427	-0.16914416086872097	0.4774409046572051	-0.026613258738311885	-0.1483566457601364	0.47873911104511574	-0.02894378243608986	-0.11734530397251797	0.4816402210050021	-0.025385580563251797	-0.07297399837494989	0.521076169375369	-0.014550354741637794	-0.0991010442723107	0.5336162761924061	-0.004788259555612906	-0.107787080111305	0.5393701978792587	0.014411862052608915	-0.12296131974467928	0.4968947410942399	0.013516777722388795	-0.12001675034563053	0.5087183846337107	-0.016671873272786297	-0.08274386956718816	0.5255023459471893	-0.010180377668692508	-0.08478326345991305	0.5419843621535148	0.01015064394808951	-0.09760520761017255	0.501160072651397	0.02755005163975499	-0.10278071914300535	0.5070511344133173	-0.005521113828192981	-0.07298849400700869	0.5243026967803751	-0.0002890178505776664	-0.0730821293450633	0.5399937904523353	0.018194943447727097	-0.07876655834897839	0.5047125680837588	0.03753767646458861	-0.08274334871527578	0.5098445942581229	-0.004831584677766343	-0.061679593429052715	0.5259152811932604	-0.00029997698444672594	-0.05791162937048633	0.5354523859560515	0.018397124723782854	-0.05738814159062833	0.5046515529621356	0.03710220532608288	-0.05890869989019243	0.46228308100186094	-0.023011742144276925	-0.051989820119430985
5	0.1666666666666669	0.46785604477043236	-0.029544399731587623	-0.1691130467004176	0.4772499136302662	-0.026662416745420248	-0.14834168656412206	0.47853129168796016	-0.02898591651297633	-0.1173291178362107	0.4816381841237883	-0.025407910129420563	-0.07297333929821825	0.5208096253740793	-0.014348959128823946	-0.09924402286421252	0.5335122438856877	-0.004681132222285278	-0.10779835544213734	0.5393429612426788	0.014500531428853658	-0.12296662322977425	0.4968694462323709	0.01355151555334655	-0.12001095316408827	0.5086585152964278	-0.0166558794972812	-0.08283408609449516	0.5254545847087001	-0.010164059822582616	-0.08477014642654168	0.541914695785384	0.010207102371959764	-0.09755646897005976	0.5011161830342894	0.02768115927309822	-0.10268351624061856	0.5071304537184638	-0.0053239761903765	-0.07293314818173835	0.5244059337210636	-0.00017109413302995868	-0.07300796250423092	0.5400691299439995	0.01834227856608528	-0.07867358642269484	0.5047417668201835	0.037625041675843685	-0.08253017760805481	0.5097899366778973	-0.0047211845315694445	-0.06151372456872328	0.5258181852776189	-0.00016206915848659964	-0.05760096162670436	0.5354254729359693	0.018502554455316567	-0.05722166200269696	0.5045970113171189	0.0371683242378813	-0.058663342840942434	0.4622830810018609	-0.023011742144276925	-0.051989820119430985
